<svg width="24" height="24" viewBox="0 0 24 24" fill="none" xmlns="http://www.w3.org/2000/svg">
<path fill-rule="evenodd" clip-rule="evenodd" d="M9.91874 20.8125L9.78911 22H12.1368L12.2664 20.8125H14.3368C16.9122 20.8125 19 18.6875 19 16.0661C19 13.8414 17.482 11.9153 15.3484 11.4327L13.3399 10.9784L13.6924 7.75H17.8333V4.1875H14.0813L14.2109 3H11.8632L11.7336 4.1875H9.66316C7.08776 4.1875 5 6.31254 5 8.93393C5 11.1586 6.51801 13.0847 8.65157 13.5673L10.66 14.0216L10.3076 17.25H6.16667V20.8125H9.91874ZM12.6553 17.25H14.3368C14.9792 17.25 15.5 16.7199 15.5 16.0661C15.5 15.5111 15.1213 15.0307 14.5892 14.9104L12.9512 14.5398L12.6553 17.25ZM11.0488 10.4601L11.3447 7.75H9.66316C9.02077 7.75 8.5 8.28006 8.5 8.93393C8.5 9.48882 8.87864 9.96928 9.41083 10.0896L11.0488 10.4601Z" fill="white"/>
</svg>
