<svg width="9" height="8" viewBox="0 0 9 8" fill="none" xmlns="http://www.w3.org/2000/svg">
<g opacity="0.7">
<path d="M3.63041 7.11152C3.5927 7.07478 3.43146 6.93607 3.29882 6.80686C2.46465 6.04933 1.09929 4.07316 0.682529 3.03884C0.615562 2.88176 0.473824 2.48463 0.464722 2.27244C0.464722 2.06912 0.511534 1.87531 0.606459 1.69036C0.739094 1.45981 0.9478 1.27486 1.19421 1.17351C1.36521 1.10828 1.8769 1.00693 1.886 1.00693C2.4458 0.905592 3.35539 0.849854 4.36055 0.849854C5.31826 0.849854 6.19079 0.905592 6.75904 0.988565C6.76814 0.998066 7.40401 1.09941 7.62182 1.21025C8.01972 1.41357 8.26679 1.8107 8.26679 2.23571V2.27244C8.25703 2.54923 8.00997 3.13131 8.00087 3.13131C7.58346 4.1099 6.28506 6.04046 5.42228 6.81636C5.42228 6.81636 5.20058 7.03488 5.06209 7.12989C4.86314 7.2781 4.61672 7.35157 4.37031 7.35157C4.09528 7.35157 3.83911 7.2686 3.63041 7.11152Z" fill="#030229"/>
</g>
</svg>
