<svg width="11" height="11" viewBox="0 0 11 11" fill="none" xmlns="http://www.w3.org/2000/svg">
<path d="M9.66919 9.08997C9.98065 9.08997 10.2336 9.34671 10.2336 9.66223C10.2335 9.97821 9.98055 10.2345 9.66919 10.2345H6.47681C6.16552 10.2344 5.91251 9.97815 5.91235 9.66223C5.91235 9.34677 6.16543 9.09006 6.47681 9.08997H9.66919ZM5.33716 0.706177C5.84733 0.0511391 6.7375 -0.00918528 7.45532 0.561646L8.28052 1.21692C8.6185 1.48132 8.84404 1.82992 8.92114 2.19641C9.0101 2.59963 8.91462 2.99548 8.64771 3.33801L3.7356 9.69055C3.51025 9.97891 3.17831 10.1415 2.82251 10.1476L0.864502 10.171C0.757715 10.171 0.668506 10.0994 0.644775 9.99719L0.199463 8.06848C0.122359 7.71399 0.199749 7.34701 0.425049 7.06458L3.90747 2.55676C3.96669 2.48478 4.07359 2.47335 4.14478 2.52649L5.6106 3.6925C5.70543 3.77056 5.83561 3.81295 5.97192 3.79504C6.26262 3.75898 6.45862 3.4945 6.42896 3.21204C6.41115 3.06788 6.34022 2.94767 6.24536 2.85754C6.21593 2.83369 4.84295 1.73312 4.82153 1.71594C4.73266 1.64392 4.71453 1.51154 4.7854 1.422L5.33716 0.706177Z" fill="#5B93FF"/>
</svg>
