<svg width="22" height="22" viewBox="0 0 22 22" fill="none" xmlns="http://www.w3.org/2000/svg">
<path fill-rule="evenodd" clip-rule="evenodd" d="M14.0503 6.91348H7.94973C4.85616 6.91348 3.30936 6.91348 2.4405 7.81808C1.57164 8.72267 1.77606 10.1203 2.18493 12.9154L2.57265 15.566C2.89328 17.7579 3.0536 18.8539 3.87602 19.5102C4.69844 20.1666 5.91144 20.1666 8.33744 20.1666H13.6626C16.0886 20.1666 17.3017 20.1666 18.1241 19.5102C18.9465 18.8539 19.1068 17.7579 19.4274 15.566L19.8152 12.9154C20.224 10.1203 20.4284 8.72266 19.5596 7.81808C18.6907 6.91348 17.1439 6.91348 14.0503 6.91348ZM13.3661 14.478C13.878 14.1607 13.878 13.3392 13.3661 13.0219L10.2755 11.106C9.77804 10.7976 9.16671 11.199 9.16671 11.834V15.6659C9.16671 16.3009 9.77804 16.7023 10.2755 16.3939L13.3661 14.478Z" fill="white"/>
<path opacity="0.4" d="M7.80038 1.83335H14.1988C14.4119 1.8333 14.5753 1.83326 14.7181 1.84723C15.7336 1.94657 16.5649 2.55712 16.9173 3.37956H5.08191C5.43438 2.55712 6.26556 1.94657 7.28107 1.84723C7.42389 1.83326 7.58728 1.8333 7.80038 1.83335Z" fill="white"/>
<path opacity="0.7" d="M5.78431 4.3291C4.50957 4.3291 3.46432 5.09887 3.1155 6.12008C3.10824 6.14136 3.10127 6.16277 3.0946 6.18426C3.45958 6.07374 3.83941 6.00153 4.22392 5.95224C5.21426 5.82528 6.46582 5.82534 7.91968 5.82542H14.2374C15.6913 5.82534 16.9429 5.82528 17.9332 5.95224C18.3177 6.00153 18.6976 6.07374 19.0625 6.18426C19.0559 6.16277 19.0488 6.14136 19.0416 6.12008C18.6928 5.09887 17.6475 4.3291 16.3728 4.3291H5.78431Z" fill="white"/>
</svg>
