<svg width="32" height="32" viewBox="0 0 32 32" fill="none" xmlns="http://www.w3.org/2000/svg">
<path d="M1.32994 20.1941L1.01681 21.9604C0.991915 22.0986 0.994694 22.2403 1.02499 22.3773C1.05529 22.5144 1.1125 22.6441 1.1933 22.7589C1.41249 23.072 2.72617 24.6376 7.04868 24.6376C7.51551 24.6376 7.94819 24.612 8.36806 24.575L8.1261 26.2658C8.10314 26.4299 8.11856 26.597 8.17117 26.7541C8.22378 26.9112 8.31212 27.0539 8.42926 27.1711C8.71391 27.4557 10.4603 28.9075 16.3 28.9075C22.1397 28.9075 23.8818 27.4614 24.1707 27.1711C24.2879 27.0539 24.3762 26.9112 24.4288 26.7541C24.4814 26.597 24.4969 26.4299 24.4739 26.2658L24.2319 24.575C24.6518 24.612 25.0859 24.6376 25.5513 24.6376C29.8738 24.6376 31.1875 23.072 31.4067 22.7589C31.4875 22.6441 31.5447 22.5144 31.575 22.3773C31.6053 22.2403 31.6081 22.0986 31.5832 21.9604L31.2715 20.197C31.0911 19.1535 30.6284 18.1793 29.9336 17.3801C29.2388 16.5809 28.3384 15.9873 27.3301 15.6636C26.3218 15.3399 25.2441 15.2985 24.2139 15.5439C23.1837 15.7894 22.2405 16.3122 21.4864 17.0558C20.2595 15.9826 18.6858 15.3896 17.0558 15.3863H15.5442C13.9142 15.3896 12.3405 15.9826 11.1136 17.0558C10.3597 16.3127 9.41673 15.7901 8.38697 15.5447C7.35721 15.2994 6.27993 15.3406 5.27194 15.664C4.26394 15.9873 3.3637 16.5804 2.6688 17.379C1.97391 18.1776 1.51089 19.1511 1.32994 20.1941ZM25.5513 17.5212C26.4169 17.5211 27.2546 17.8268 27.9166 18.3843C28.5786 18.9419 29.0223 19.7155 29.1693 20.5685L29.3757 21.7313C28.1937 22.3284 26.8723 22.595 25.5513 22.5027C25.0055 22.5027 24.4605 22.4637 23.9202 22.386L23.748 21.1904C23.6197 20.3194 23.3198 19.4824 22.8656 18.7282C23.2035 18.3497 23.6172 18.0467 24.08 17.8387C24.5427 17.6308 25.044 17.5226 25.5513 17.5212ZM10.9655 21.4922C11.1276 20.392 11.6787 19.3864 12.5187 18.6579C13.3588 17.9293 14.4322 17.526 15.5442 17.5212H17.0558C18.1678 17.526 19.2412 17.9293 20.0813 18.6579C20.9213 19.3864 21.4724 20.392 21.6345 21.4922L22.2607 25.8759C20.3579 26.5864 18.3277 26.8918 16.3 26.7725C14.2729 26.8913 12.2431 26.5879 10.3393 25.8816L10.9655 21.4922ZM3.43212 20.5656C3.57915 19.7132 4.02273 18.9401 4.6845 18.383C5.34627 17.826 6.18365 17.5207 7.04868 17.5212C7.55598 17.5226 8.05731 17.6308 8.52004 17.8387C8.98277 18.0467 9.39654 18.3497 9.73441 18.7282C9.28022 19.4824 8.98028 20.3194 8.85197 21.1904L8.67976 22.386C8.13954 22.4637 7.59446 22.5027 7.04868 22.5027C5.72853 22.5938 4.40805 22.3299 3.22432 21.7384L3.43212 20.5656Z" fill="#737791"/>
<path d="M3.13457 10.7606C3.13457 11.5347 3.36413 12.2914 3.7942 12.9351C4.22428 13.5788 4.83557 14.0804 5.55076 14.3767C6.26596 14.6729 7.05294 14.7504 7.81218 14.5994C8.57143 14.4484 9.26884 14.0756 9.81623 13.5282C10.3636 12.9808 10.7364 12.2834 10.8874 11.5242C11.0384 10.7649 10.9609 9.97794 10.6647 9.26275C10.3684 8.54756 9.86677 7.93627 9.22311 7.50619C8.57945 7.07611 7.82271 6.84656 7.04859 6.84656C6.01076 6.84731 5.01565 7.25993 4.2818 7.99378C3.54794 8.72764 3.13533 9.72275 3.13457 10.7606ZM7.04859 8.98148C7.40047 8.98148 7.74444 9.08582 8.03701 9.28131C8.32958 9.4768 8.55761 9.75466 8.69227 10.0797C8.82693 10.4048 8.86216 10.7626 8.79351 11.1077C8.72486 11.4528 8.55542 11.7698 8.30661 12.0186C8.0578 12.2674 7.74079 12.4369 7.39568 12.5055C7.05057 12.5741 6.69285 12.5389 6.36776 12.4043C6.04267 12.2696 5.76482 12.0416 5.56933 11.749C5.37384 11.4564 5.26949 11.1125 5.26949 10.7606C5.27025 10.289 5.45793 9.83688 5.79141 9.5034C6.1249 9.16992 6.57698 8.98223 7.04859 8.98148Z" fill="#737791"/>
<path d="M25.5512 14.6746C26.3254 14.6746 27.0821 14.4451 27.7258 14.015C28.3694 13.5849 28.8711 12.9736 29.1673 12.2584C29.4636 11.5432 29.5411 10.7562 29.3901 9.997C29.239 9.23775 28.8663 8.54034 28.3189 7.99295C27.7715 7.44557 27.0741 7.07279 26.3148 6.92177C25.5556 6.77075 24.7686 6.84826 24.0534 7.1445C23.3382 7.44074 22.7269 7.94241 22.2969 8.58607C21.8668 9.22973 21.6372 9.98646 21.6372 10.7606C21.638 11.7984 22.0506 12.7935 22.7844 13.5274C23.5183 14.2612 24.5134 14.6739 25.5512 14.6746ZM25.5512 8.98148C25.9031 8.98148 26.2471 9.08583 26.5397 9.28132C26.8322 9.47681 27.0603 9.75466 27.1949 10.0798C27.3296 10.4048 27.3648 10.7626 27.2962 11.1077C27.2275 11.4528 27.0581 11.7698 26.8093 12.0186C26.5604 12.2674 26.2434 12.4369 25.8983 12.5055C25.5532 12.5741 25.1955 12.5389 24.8704 12.4043C24.5453 12.2696 24.2675 12.0416 24.072 11.749C23.8765 11.4564 23.7721 11.1125 23.7721 10.7606C23.7729 10.289 23.9606 9.83688 24.2941 9.5034C24.6275 9.16992 25.0796 8.98224 25.5512 8.98148Z" fill="#737791"/>
<path d="M16.2999 4C15.2443 4 14.2124 4.31303 13.3347 4.8995C12.457 5.48597 11.7729 6.31954 11.3689 7.2948C10.9649 8.27007 10.8592 9.34322 11.0652 10.3786C11.2711 11.4139 11.7794 12.3649 12.5259 13.1113C13.2723 13.8578 14.2233 14.3661 15.2587 14.572C16.294 14.778 17.3672 14.6723 18.3424 14.2683C19.3177 13.8644 20.1513 13.1803 20.7377 12.3025C21.3242 11.4248 21.6372 10.3929 21.6372 9.3373C21.6357 7.92222 21.0729 6.56554 20.0723 5.56492C19.0717 4.56431 17.715 4.00151 16.2999 4ZM16.2999 12.5397C15.6665 12.5397 15.0474 12.3519 14.5208 12C13.9941 11.6481 13.5837 11.148 13.3413 10.5628C13.0989 9.97764 13.0355 9.33375 13.1591 8.71255C13.2826 8.09135 13.5876 7.52074 14.0355 7.07288C14.4834 6.62502 15.054 6.32002 15.6752 6.19645C16.2964 6.07289 16.9403 6.13631 17.5254 6.37869C18.1106 6.62107 18.6107 7.03153 18.9626 7.55815C19.3145 8.08478 19.5023 8.70393 19.5023 9.3373C19.5015 10.1864 19.1639 11.0005 18.5635 11.6009C17.9631 12.2013 17.149 12.5389 16.2999 12.5397Z" fill="#737791"/>
</svg>
