<svg width="25" height="20" viewBox="0 0 25 20" fill="none" xmlns="http://www.w3.org/2000/svg">
<mask id="mask0_1259_2957" style="mask-type:luminance" maskUnits="userSpaceOnUse" x="0" y="0" width="25" height="20">
<path d="M22.716 4.7778C22.6094 4.75374 22.4985 4.75592 22.3928 4.78417C22.2872 4.81242 22.19 4.86588 22.1096 4.93997L21.0116 5.95179C20.5243 6.40137 19.7491 5.95367 19.8944 5.3066L20.2219 4.11735C20.2709 3.63352 20.2102 3.40632 20.0598 3.24335L19.0482 2.14536C18.5986 1.65805 19.0463 0.882795 19.6931 1.02811L21.1503 1.35566C21.2569 1.37975 21.3678 1.37757 21.4734 1.34933C21.5791 1.32108 21.6763 1.2676 21.7567 1.19349L22.8544 0.181935C23.3417 -0.267644 24.1172 0.180062 23.9719 0.826866L23.6441 2.28398C23.62 2.39064 23.6222 2.50154 23.6504 2.60717C23.6787 2.7128 23.7321 2.80999 23.8063 2.89038L24.8181 3.9881C25.2677 4.47541 24.8199 5.25093 24.1729 5.10562L22.716 4.7778ZM2.56902 4.79011H16.6986C18.118 4.79011 19.2677 5.93975 19.2677 7.35913V16.993C19.2677 18.4123 18.118 19.562 16.6986 19.562H2.56902C2.23162 19.5621 1.89751 19.4957 1.58577 19.3666C1.27404 19.2376 0.99079 19.0483 0.752213 18.8098C0.513637 18.5712 0.324408 18.2879 0.19534 17.9762C0.0662723 17.6645 -0.000105361 17.3304 1.2553e-07 16.993V7.35913C1.2553e-07 5.93975 1.14964 4.79011 2.56902 4.79011ZM2.41006 18.1892H16.8576C17.6203 18.1892 18.0795 17.3462 17.6684 16.7056L15.3065 13.027C14.9276 12.4362 14.0638 12.4362 13.6848 13.027L11.0933 17.0636L7.04233 10.7535C6.6634 10.1626 5.79956 10.1626 5.42063 10.7535L1.59922 16.7056C1.18817 17.3462 1.64738 18.1892 2.41006 18.1892ZM16.9561 9.74699C17.3596 9.83824 17.6401 9.3536 17.3588 9.04853L16.6451 8.27515C16.5988 8.2248 16.5654 8.16398 16.5477 8.09789C16.5301 8.03181 16.5287 7.96242 16.5437 7.89569L16.7752 6.86888C16.8664 6.46506 16.3818 6.18461 16.0767 6.46586L15.3033 7.17957C15.2008 7.27323 15.0598 7.31123 14.9239 7.28099L13.8971 7.04951C13.4932 6.95853 13.2128 7.4429 13.494 7.74797L14.2078 8.52162C14.3014 8.62384 14.3394 8.76487 14.3092 8.90081L14.0777 9.92789C13.9867 10.3314 14.4711 10.6119 14.7761 10.3306L15.5495 9.61693C15.652 9.52327 15.7931 9.48527 15.929 9.51577L16.9561 9.74699Z" fill="white"/>
</mask>
<g mask="url(#mask0_1259_2957)">
<mask id="mask1_1259_2957" style="mask-type:luminance" maskUnits="userSpaceOnUse" x="-3" y="-4" width="29" height="27">
<path d="M24.266 -3.3457H-1.52586C-1.72529 -3.3457 -1.91656 -3.26648 -2.05758 -3.12546C-2.19861 -2.98443 -2.27783 -2.79317 -2.27783 -2.59373V21.6332C-2.27783 21.8326 -2.19861 22.0239 -2.05758 22.1649C-1.91656 22.3059 -1.72529 22.3852 -1.52586 22.3852H24.266C24.4655 22.3852 24.6567 22.3059 24.7978 22.1649C24.9388 22.0239 25.018 21.8326 25.018 21.6332V-2.59346C25.018 -2.69223 24.9986 -2.79005 24.9608 -2.88131C24.9231 -2.97258 24.8677 -3.05551 24.7979 -3.12536C24.728 -3.19522 24.6451 -3.25063 24.5539 -3.28844C24.4626 -3.32624 24.3648 -3.3457 24.266 -3.3457Z" fill="white"/>
</mask>
<g mask="url(#mask1_1259_2957)">
<path d="M24.266 -3.3457H-1.52586C-1.72529 -3.3457 -1.91656 -3.26648 -2.05758 -3.12546C-2.19861 -2.98443 -2.27783 -2.79317 -2.27783 -2.59373V21.6332C-2.27783 21.8326 -2.19861 22.0239 -2.05758 22.1649C-1.91656 22.3059 -1.72529 22.3852 -1.52586 22.3852H24.266C24.4655 22.3852 24.6567 22.3059 24.7978 22.1649C24.9388 22.0239 25.018 21.8326 25.018 21.6332V-2.59346C25.018 -2.69223 24.9986 -2.79005 24.9608 -2.88131C24.9231 -2.97258 24.8677 -3.05551 24.7979 -3.12536C24.728 -3.19522 24.6451 -3.25063 24.5539 -3.28844C24.4626 -3.32624 24.3648 -3.3457 24.266 -3.3457Z" fill="#B37FEB"/>
<path d="M25.018 -3.3457H-2.27783V22.3854H25.018V-3.3457Z" fill="#B37FEB"/>
<path d="M13.1729 8.84676C19.7314 8.8382 25.0407 3.81924 25.0316 -2.36326C25.0225 -8.54577 19.6982 -13.5508 13.1397 -13.542C6.58147 -13.5334 1.27216 -8.51446 1.28126 -2.33195C1.29036 3.85055 6.61466 8.85533 13.1729 8.84676Z" fill="url(#paint0_radial_1259_2957)"/>
<path d="M8.14094 -7.89111C6.04478 -9.11407 3.38879 -9.1213 1.28486 -7.91038L-19.76 4.20228C-21.8211 5.38858 -21.8245 8.18855 -19.7661 9.37939L1.13929 21.4749C3.24026 22.6901 5.89626 22.6888 7.99536 21.4704L28.8579 9.36387C30.9054 8.1757 30.9091 5.39099 28.8641 4.19827L8.14094 -7.89111Z" fill="url(#paint1_linear_1259_2957)"/>
<path d="M1.65615 8.87066C2.12259 -0.735601 10.7617 -8.16649 20.9522 -7.72655C31.1423 -7.28687 39.025 0.85719 38.5585 10.4632C38.0921 20.0694 29.4529 27.5003 19.2628 27.0607C9.07232 26.6207 1.18971 18.4769 1.65615 8.87066Z" fill="url(#paint2_linear_1259_2957)"/>
<path d="M-13.3361 15.2047C-9.28558 13.5755 -4.91691 13.6454 -1.13215 15.0704C6.44137 17.9284 10.8483 16.1614 13.9046 9.03825C15.4273 5.46383 18.3996 2.43667 22.4549 0.805874C30.5626 -2.44956 39.9229 1.08285 43.3716 8.70347C46.8202 16.3238 43.0454 25.1334 34.9396 28.3931C30.8752 30.0277 26.4982 29.9511 22.7076 28.5136C15.1463 25.6705 10.748 27.4442 7.69538 34.5759C6.16895 38.1418 3.19718 41.1585 -0.853577 42.7874C-8.95482 46.0455 -18.3149 42.5128 -21.7617 34.8968C-25.2084 27.2807 -21.4376 18.4628 -13.3361 15.2047Z" fill="url(#paint3_linear_1259_2957)"/>
<path d="M23.4444 12.4974C30.0029 12.4886 35.3122 7.46963 35.3028 1.28739C35.2937 -4.89538 29.9697 -9.90015 23.4112 -9.89159C16.8527 -9.88303 11.5434 -4.86407 11.5525 1.31844C11.5616 7.50121 16.8859 12.506 23.4444 12.4974Z" fill="url(#paint4_radial_1259_2957)"/>
</g>
</g>
<defs>
<radialGradient id="paint0_radial_1259_2957" cx="0" cy="0" r="1" gradientUnits="userSpaceOnUse" gradientTransform="translate(13.1563 -2.34748) rotate(89.9151) scale(11.1945 11.8752)">
<stop offset="0.167" stop-color="#FF709F"/>
<stop offset="1" stop-color="#FF709F" stop-opacity="0"/>
</radialGradient>
<linearGradient id="paint1_linear_1259_2957" x1="-9.13706" y1="19.6485" x2="33.7875" y2="-8.05435" gradientUnits="userSpaceOnUse">
<stop offset="0.06" stop-color="#8480FE"/>
<stop offset="0.6" stop-color="#8480FE" stop-opacity="0"/>
</linearGradient>
<linearGradient id="paint2_linear_1259_2957" x1="26.4758" y1="1.39374" x2="8.63666" y2="21.7423" gradientUnits="userSpaceOnUse">
<stop stop-color="#B37FEB"/>
<stop offset="1" stop-color="#B37FEB" stop-opacity="0"/>
</linearGradient>
<linearGradient id="paint3_linear_1259_2957" x1="3.34008" y1="23.3546" x2="36.1082" y2="3.88201" gradientUnits="userSpaceOnUse">
<stop stop-color="#531DAB" stop-opacity="0"/>
<stop offset="0.432" stop-color="#531DAB"/>
<stop offset="0.609" stop-color="#531DAB"/>
<stop offset="1" stop-color="#531DAB" stop-opacity="0"/>
</linearGradient>
<radialGradient id="paint4_radial_1259_2957" cx="0" cy="0" r="1" gradientUnits="userSpaceOnUse" gradientTransform="translate(23.4278 1.30291) rotate(89.9151) scale(11.1944 11.8752)">
<stop offset="0.167" stop-color="#573CFF"/>
<stop offset="1" stop-color="#573CFF" stop-opacity="0"/>
</radialGradient>
</defs>
</svg>
