<svg width="18" height="20" viewBox="0 0 18 20" fill="none" xmlns="http://www.w3.org/2000/svg">
<path fill-rule="evenodd" clip-rule="evenodd" d="M12.9396 1.52238L12.9405 2.20472C15.4479 2.40124 17.1042 4.10981 17.1069 6.72999L17.1167 14.3995C17.1203 17.2562 15.3256 19.0139 12.4489 19.0185L5.42188 19.0276C2.5631 19.0312 0.745915 17.2316 0.74232 14.3667L0.732435 6.78731C0.72884 4.14984 2.32674 2.44582 4.83413 2.21564L4.83323 1.5333C4.83233 1.133 5.12891 0.831856 5.52434 0.831856C5.91977 0.830946 6.21634 1.13118 6.21724 1.53148L6.21814 2.16833L11.5565 2.16105L11.5556 1.5242C11.5547 1.1239 11.8512 0.823668 12.2467 0.822758C12.6331 0.821848 12.9387 1.12208 12.9396 1.52238ZM2.11742 7.06847L15.7238 7.05027V6.73185C15.6852 4.77581 14.7038 3.74957 12.9423 3.59673L12.9432 4.29726C12.9432 4.68847 12.6386 4.99871 12.2521 4.99871C11.8567 4.99962 11.5592 4.69029 11.5592 4.29908L11.5583 3.56216L6.22001 3.56944L6.22091 4.30545C6.22091 4.69757 5.92524 5.0069 5.52981 5.0069C5.13437 5.00781 4.8369 4.69939 4.8369 4.30727L4.836 3.60674C3.08353 3.78233 2.11382 4.8122 2.11652 6.78553L2.11742 7.06847ZM11.8738 11.2034V11.2134C11.8827 11.6319 12.2243 11.9494 12.6386 11.9403C13.043 11.9303 13.3656 11.5837 13.3566 11.1652C13.3378 10.7649 13.0133 10.4382 12.6098 10.4391C12.1964 10.4482 11.8729 10.7849 11.8738 11.2034ZM12.6161 15.2883C12.2027 15.2793 11.8693 14.9344 11.8684 14.5159C11.8594 14.0974 12.191 13.7508 12.6044 13.7408H12.6134C13.0358 13.7408 13.3782 14.0856 13.3782 14.5132C13.3791 14.9408 13.0376 15.2874 12.6161 15.2883ZM8.17114 11.218C8.18912 11.6365 8.53152 11.9631 8.94493 11.9449C9.34935 11.9258 9.67198 11.5801 9.65401 11.1616C9.64412 10.7522 9.3116 10.4338 8.90718 10.4347C8.49378 10.4529 8.17024 10.7995 8.17114 11.218ZM8.94842 15.2476C8.53501 15.2658 8.19351 14.9391 8.17463 14.5206C8.17463 14.1021 8.49727 13.7564 8.91067 13.7373C9.31509 13.7364 9.64851 14.0548 9.6575 14.4633C9.67637 14.8827 9.35284 15.2285 8.94842 15.2476ZM4.46837 11.2498C4.48634 11.6683 4.82875 11.9958 5.24215 11.9767C5.64657 11.9585 5.96921 11.6119 5.95034 11.1934C5.94135 10.784 5.60883 10.4655 5.20351 10.4665C4.7901 10.4846 4.46747 10.8313 4.46837 11.2498ZM5.24591 15.252C4.8325 15.2711 4.49099 14.9436 4.47212 14.5251C4.47122 14.1066 4.79475 13.7599 5.20816 13.7417C5.61258 13.7408 5.946 14.0592 5.95498 14.4687C5.97386 14.8872 5.65122 15.2338 5.24591 15.252Z" fill="#4285F4"/>
</svg>
