<svg width="25" height="26" viewBox="0 0 25 26" fill="none" xmlns="http://www.w3.org/2000/svg">
<g opacity="0.4">
<path d="M21.4089 8.70898C21.6681 8.70904 21.9037 8.82159 22.0896 9.0127C22.2628 9.21679 22.3492 9.47052 22.324 9.73828C22.324 9.8267 21.6309 18.5912 21.2351 22.2803C20.9872 24.5441 19.5277 25.9183 17.3386 25.9561C15.6555 25.9938 14.0102 26.0068 12.3904 26.0068C10.6706 26.0068 8.98874 25.9938 7.3562 25.9561C5.24048 25.9053 3.77995 24.5064 3.54468 22.2803C3.13746 18.5782 2.45674 9.8267 2.44409 9.73828C2.43149 9.47048 2.51766 9.2168 2.69214 9.0127C2.86403 8.82179 3.11158 8.70911 3.37183 8.70898H21.4089ZM15.0701 0C16.2195 0 17.2464 0.802188 17.5437 1.94629L17.7566 2.89551C17.9286 3.66911 18.5986 4.21667 19.3699 4.2168H23.1619C23.6676 4.21696 24.0886 4.63754 24.0886 5.17188V5.66602C24.0884 6.18714 23.6674 6.61995 23.1619 6.62012H1.61108C1.10411 6.62012 0.682627 6.18724 0.682373 5.66602V5.17188C0.682373 4.63744 1.10396 4.2168 1.61108 4.2168H5.4021C6.17213 4.21678 6.84199 3.66964 7.01538 2.89746L7.2146 2.01074C7.52317 0.802734 8.53871 0 9.70093 0H15.0701Z" fill="#030229"/>
</g>
</svg>
