<svg width="25" height="30" viewBox="0 0 25 30" fill="none" xmlns="http://www.w3.org/2000/svg">
<path d="M25 12.9906L10.5769 0.562012H1.92308C1.41305 0.562012 0.923903 0.736603 0.563256 1.04738C0.202609 1.35815 0 1.77965 0 2.21915V27.9049C0 28.3444 0.202609 28.7659 0.563256 29.0766C0.923903 29.3874 1.41305 29.562 1.92308 29.562H14.4231V23.762C14.4231 23.3225 14.6257 22.901 14.9863 22.5902C15.347 22.2795 15.8361 22.1049 16.3462 22.1049H25V12.9906ZM22.3173 12.9906H10.5769V2.87373L22.3173 12.9906ZM16.3462 20.4477C15.3261 20.4477 14.3478 20.7969 13.6265 21.4185C12.9052 22.04 12.5 22.883 12.5 23.762V27.9049H1.92308V2.21915H8.65385V14.6477H23.0769V20.4477H16.3462Z" fill="#531DAB"/>
<path d="M25 12.9906L10.5769 0.562012H1.92308C1.41305 0.562012 0.923903 0.736603 0.563256 1.04738C0.202609 1.35815 0 1.77965 0 2.21915V27.9049C0 28.3444 0.202609 28.7659 0.563256 29.0766C0.923903 29.3874 1.41305 29.562 1.92308 29.562H14.4231V23.762C14.4231 23.3225 14.6257 22.901 14.9863 22.5902C15.347 22.2795 15.8361 22.1049 16.3462 22.1049H25V12.9906ZM22.3173 12.9906H10.5769V2.87373L22.3173 12.9906ZM16.3462 20.4477C15.3261 20.4477 14.3478 20.7969 13.6265 21.4185C12.9052 22.04 12.5 22.883 12.5 23.762V27.9049H1.92308V2.21915H8.65385V14.6477H23.0769V20.4477H16.3462Z" fill="url(#paint0_linear_1259_2996)" style="mix-blend-mode:soft-light"/>
<path d="M25 12.9906L10.5769 0.562012H1.92308C1.41305 0.562012 0.923903 0.736603 0.563256 1.04738C0.202609 1.35815 0 1.77965 0 2.21915V27.9049C0 28.3444 0.202609 28.7659 0.563256 29.0766C0.923903 29.3874 1.41305 29.562 1.92308 29.562H14.4231V23.762C14.4231 23.3225 14.6257 22.901 14.9863 22.5902C15.347 22.2795 15.8361 22.1049 16.3462 22.1049H25V12.9906ZM22.3173 12.9906H10.5769V2.87373L22.3173 12.9906ZM16.3462 20.4477C15.3261 20.4477 14.3478 20.7969 13.6265 21.4185C12.9052 22.04 12.5 22.883 12.5 23.762V27.9049H1.92308V2.21915H8.65385V14.6477H23.0769V20.4477H16.3462Z" fill="url(#paint1_linear_1259_2996)"/>
<defs>
<linearGradient id="paint0_linear_1259_2996" x1="25.3472" y1="30.2444" x2="-3.65004" y2="1.53328" gradientUnits="userSpaceOnUse">
<stop stop-color="#B37FEB"/>
<stop offset="0.18" stop-color="#D2AEF5" stop-opacity="0"/>
<stop offset="0.835" stop-color="#EFDBFF"/>
</linearGradient>
<linearGradient id="paint1_linear_1259_2996" x1="16.8098" y1="8.17241" x2="1.86837" y2="22.0227" gradientUnits="userSpaceOnUse">
<stop stop-color="#B37FEB"/>
<stop offset="1" stop-color="#B37FEB" stop-opacity="0"/>
</linearGradient>
</defs>
</svg>
