<svg width="21" height="20" viewBox="0 0 21 20" fill="none" xmlns="http://www.w3.org/2000/svg">
<path fill-rule="evenodd" clip-rule="evenodd" d="M15.3456 0.822754C16.7019 0.822754 18.0066 1.35878 18.9664 2.32061C19.9272 3.2804 20.4642 4.57497 20.4642 5.93022V13.9201C20.4642 16.7419 18.1684 19.0276 15.3456 19.0276H5.35421C2.53145 19.0276 0.236633 16.7419 0.236633 13.9201V5.93022C0.236633 3.10847 2.52134 0.822754 5.35421 0.822754H15.3456ZM16.9548 7.43731L17.0357 7.3564C17.2774 7.0631 17.2774 6.63832 17.0246 6.34502C16.884 6.19433 16.6908 6.10229 16.4896 6.08206C16.2772 6.07094 16.0749 6.14275 15.9222 6.28434L11.3619 9.9253C10.7753 10.4118 9.93481 10.4118 9.33911 9.9253L4.7879 6.28434C4.47336 6.05172 4.03847 6.08206 3.77652 6.35513C3.50345 6.62821 3.47311 7.0631 3.70471 7.36651L3.8372 7.49799L8.43898 11.0884C9.00535 11.5334 9.69208 11.7761 10.4112 11.7761C11.1282 11.7761 11.8271 11.5334 12.3925 11.0884L16.9548 7.43731Z" fill="#3A974C"/>
</svg>
