<svg width="24" height="25" viewBox="0 0 24 25" fill="none" xmlns="http://www.w3.org/2000/svg">
<path d="M10 13.5C13.866 13.5 17 15.7386 17 18.5C17 19.6046 16.1046 20.5 15 20.5H5C3.89543 20.5 3 19.6046 3 18.5C3 15.7386 6.13401 13.5 10 13.5ZM10 4.5C12.2091 4.5 14 6.29086 14 8.5C14 10.7091 12.2091 12.5 10 12.5C7.79086 12.5 6 10.7091 6 8.5C6 6.29086 7.79086 4.5 10 4.5ZM18 6.5C18.5523 6.5 19 6.94772 19 7.5V8.5H20C20.5523 8.5 21 8.94772 21 9.5C21 10.0523 20.5523 10.5 20 10.5H19V11.5C19 12.0523 18.5523 12.5 18 12.5C17.4477 12.5 17 12.0523 17 11.5V10.5H16C15.4477 10.5 15 10.0523 15 9.5C15 8.94772 15.4477 8.5 16 8.5H17V7.5C17 6.94772 17.4477 6.5 18 6.5Z" fill="white"/>
</svg>
