<svg width="32" height="32" viewBox="0 0 32 32" fill="none" xmlns="http://www.w3.org/2000/svg">
<path d="M10.006 4.04548C8.8641 3.98488 7.68969 4.2763 6.68245 4.91807C3.45929 6.97175 2.00001 11.3225 2.00001 16.0377C2.00001 20.7529 3.45929 25.1036 6.68245 27.1573C8.29403 28.1841 10.3336 28.314 11.9831 27.5402C13.6326 26.7665 14.9024 25.2863 15.8194 23.3733C16.0318 22.93 16.058 22.4213 15.892 21.9589C15.726 21.4966 15.3816 21.1185 14.9344 20.9079C14.4873 20.6973 13.974 20.6715 13.5076 20.836C13.0412 21.0005 12.6598 21.3419 12.4473 21.7851C11.7933 23.1495 10.9907 23.9118 10.3863 24.1953C9.78182 24.4788 9.38603 24.4807 8.70106 24.0443C7.33113 23.1714 5.73335 19.8792 5.73335 16.0377C5.73335 12.1962 7.33113 8.9039 8.70106 8.03103C9.38603 7.59459 9.78182 7.59662 10.3863 7.88015C10.9907 8.16367 11.7933 8.92578 12.4473 10.2902C12.6598 10.7334 13.0412 11.0749 13.5076 11.2394C13.974 11.4039 14.4873 11.378 14.9344 11.1674C15.3816 10.9568 15.726 10.5787 15.892 10.1164C16.058 9.65405 16.0318 9.14529 15.8194 8.70205C14.9024 6.78906 13.6326 5.30881 11.9831 4.53508C11.3646 4.24493 10.6911 4.08184 10.006 4.04548Z" fill="#737791"/>
<path d="M24.006 4.04548C22.8641 3.98488 21.6897 4.27629 20.6824 4.91807C17.4593 6.97174 16 11.3225 16 16.0377C16 20.7528 17.4593 25.1036 20.6824 27.1573C22.294 28.1841 24.3336 28.314 25.9831 27.5402C27.6326 26.7665 28.9024 25.2863 29.8193 23.3733C29.9246 23.1538 29.9851 22.916 29.9976 22.6733C30.0101 22.4306 29.9742 22.1879 29.892 21.9589C29.8098 21.73 29.683 21.5193 29.5187 21.339C29.3544 21.1587 29.1558 21.0122 28.9344 20.9079C28.713 20.8036 28.473 20.7436 28.2282 20.7312C27.9834 20.7189 27.7385 20.7545 27.5076 20.8359C27.2766 20.9174 27.0641 21.0432 26.8822 21.206C26.7003 21.3689 26.5525 21.5657 26.4473 21.7852C25.7933 23.1496 24.9907 23.9117 24.3862 24.1952C23.7818 24.4787 23.386 24.4807 22.701 24.0442C21.3311 23.1714 19.7333 19.8791 19.7333 16.0377C19.7333 12.1962 21.3311 8.90397 22.701 8.0311C23.386 7.59467 23.7818 7.59661 24.3862 7.88013C24.9907 8.16365 25.7933 8.92577 26.4473 10.2902C26.5525 10.5096 26.7003 10.7064 26.8822 10.8693C27.0641 11.0322 27.2766 11.1579 27.5076 11.2394C27.7385 11.3209 27.9834 11.3564 28.2282 11.3441C28.473 11.3317 28.713 11.2717 28.9344 11.1674C29.1558 11.0632 29.3544 10.9167 29.5187 10.7363C29.683 10.556 29.8098 10.3454 29.892 10.1164C29.9742 9.88748 30.0101 9.64474 29.9976 9.40206C29.9851 9.15938 29.9246 8.92151 29.8193 8.70203C28.9024 6.78905 27.6326 5.3088 25.9831 4.53508C25.3646 4.24493 24.6911 4.08184 24.006 4.04548Z" fill="#737791"/>
</svg>
